<svg width="41" height="38" viewBox="0 0 41 38" fill="none" xmlns="http://www.w3.org/2000/svg">
<path opacity="0.7" d="M7.80952 8C7.80952 3.58 11.3043 0 15.619 0C19.9338 0 23.4286 3.58 23.4286 8C23.4286 12.42 19.9338 16 15.619 16C11.3043 16 7.80952 12.42 7.80952 8ZM13.94 31.5L13.3738 30L13.94 28.5C15.3067 25 17.7276 22.28 20.7148 20.44C19.1138 20.16 17.4152 20 15.619 20C6.98952 20 0 23.58 0 28V32H14.1938C14.1157 31.82 14.0181 31.66 13.94 31.5ZM29.2857 28C28.1924 28 27.3333 28.88 27.3333 30C27.3333 31.12 28.1924 32 29.2857 32C30.379 32 31.2381 31.12 31.2381 30C31.2381 28.88 30.379 28 29.2857 28ZM41 30C39.1648 34.68 34.6157 38 29.2857 38C23.9557 38 19.4067 34.68 17.5714 30C19.4067 25.32 23.9557 22 29.2857 22C34.6157 22 39.1648 25.32 41 30ZM34.1667 30C34.1667 28.6739 33.6524 27.4021 32.7371 26.4645C31.8217 25.5268 30.5802 25 29.2857 25C27.9912 25 26.7497 25.5268 25.8344 26.4645C24.919 27.4021 24.4048 28.6739 24.4048 30C24.4048 31.3261 24.919 32.5979 25.8344 33.5355C26.7497 34.4732 27.9912 35 29.2857 35C30.5802 35 31.8217 34.4732 32.7371 33.5355C33.6524 32.5979 34.1667 31.3261 34.1667 30Z" fill="black"/>
</svg>
