<svg width="53" height="53" viewBox="0 0 53 53" fill="none" xmlns="http://www.w3.org/2000/svg">
<g opacity="0.7">
<path fill-rule="evenodd" clip-rule="evenodd" d="M13.25 16.5625C13.25 15.2575 13.507 13.9653 14.0064 12.7596C14.5059 11.5539 15.2378 10.4584 16.1606 9.53563C17.0834 8.61284 18.1789 7.88085 19.3846 7.38145C20.5903 6.88204 21.8825 6.625 23.1875 6.625C24.4925 6.625 25.7847 6.88204 26.9904 7.38145C28.1961 7.88085 29.2916 8.61284 30.2144 9.53563C31.1372 10.4584 31.8691 11.5539 32.3686 12.7596C32.868 13.9653 33.125 15.2575 33.125 16.5625C33.125 19.1981 32.078 21.7257 30.2144 23.5894C28.3507 25.453 25.8231 26.5 23.1875 26.5C20.5519 26.5 18.0243 25.453 16.1606 23.5894C14.297 21.7257 13.25 19.1981 13.25 16.5625ZM41.4062 20.8456V13.25H44.7188V20.8456L46.8586 18.7024L49.2039 21.0476L44.2351 26.0164C44.0813 26.1706 43.8985 26.293 43.6973 26.3765C43.4961 26.46 43.2804 26.503 43.0625 26.503C42.8446 26.503 42.6289 26.46 42.4277 26.3765C42.2265 26.293 42.0437 26.1706 41.8899 26.0164L36.9211 21.0476L39.2664 18.7024L41.4062 20.8456ZM6.625 46.375V44.7188C6.625 40.7654 8.19548 36.9739 10.9909 34.1784C13.7864 31.383 17.5779 29.8125 21.5312 29.8125H24.8438C28.7971 29.8125 32.5886 31.383 35.3841 34.1784C38.1795 36.9739 39.75 40.7654 39.75 44.7188V46.375H6.625Z" fill="black"/>
</g>
</svg>
