<svg width="44" height="44" viewBox="0 0 44 44" fill="none" xmlns="http://www.w3.org/2000/svg">
<g opacity="0.7">
<path d="M9.16667 38.5C8.15833 38.5 7.29544 38.1413 6.578 37.4238C5.86056 36.7064 5.50122 35.8429 5.5 34.8333V9.16667C5.5 8.15833 5.85933 7.29544 6.578 6.578C7.29667 5.86056 8.15956 5.50122 9.16667 5.5H16.5C17.5083 5.5 18.3718 5.85933 19.0905 6.578C19.8092 7.29667 20.1679 8.15956 20.1667 9.16667V34.8333C20.1667 35.8417 19.8079 36.7052 19.0905 37.4238C18.3731 38.1425 17.5096 38.5012 16.5 38.5H9.16667ZM27.5 38.5C26.4917 38.5 25.6288 38.1413 24.9113 37.4238C24.1939 36.7064 23.8346 35.8429 23.8333 34.8333V25.6667C23.8333 24.6583 24.1927 23.7954 24.9113 23.078C25.63 22.3606 26.4929 22.0012 27.5 22H34.8333C35.8417 22 36.7052 22.3593 37.4238 23.078C38.1425 23.7967 38.5012 24.6596 38.5 25.6667V34.8333C38.5 35.8417 38.1413 36.7052 37.4238 37.4238C36.7064 38.1425 35.8429 38.5012 34.8333 38.5H27.5ZM27.5 18.3333C26.4917 18.3333 25.6288 17.9746 24.9113 17.2572C24.1939 16.5397 23.8346 15.6762 23.8333 14.6667V9.16667C23.8333 8.15833 24.1927 7.29544 24.9113 6.578C25.63 5.86056 26.4929 5.50122 27.5 5.5H34.8333C35.8417 5.5 36.7052 5.85933 37.4238 6.578C38.1425 7.29667 38.5012 8.15956 38.5 9.16667V14.6667C38.5 15.675 38.1413 16.5385 37.4238 17.2572C36.7064 17.9758 35.8429 18.3346 34.8333 18.3333H27.5Z" fill="black"/>
</g>
</svg>
