<svg width="52" height="52" viewBox="0 0 52 52" fill="none" xmlns="http://www.w3.org/2000/svg">
<g opacity="0.3">
<path d="M45.5 48.75H29.25C28.388 48.75 27.5614 48.4076 26.9519 47.7981C26.3424 47.1886 26 46.362 26 45.5V29.25C26 28.388 26.3424 27.5614 26.9519 26.9519C27.5614 26.3424 28.388 26 29.25 26H32.5V29.25H29.25V45.5H45.5V29.25H42.25V26H45.5C46.362 26 47.1886 26.3424 47.7981 26.9519C48.4076 27.5614 48.75 28.388 48.75 29.25V45.5C48.75 46.362 48.4076 47.1886 47.7981 47.7981C47.1886 48.4076 46.362 48.75 45.5 48.75ZM22.75 26H6.5C5.63805 26 4.8114 25.6576 4.2019 25.0481C3.59241 24.4386 3.25 23.612 3.25 22.75V6.5C3.25 5.63805 3.59241 4.8114 4.2019 4.2019C4.8114 3.59241 5.63805 3.25 6.5 3.25H22.75C23.612 3.25 24.4386 3.59241 25.0481 4.2019C25.6576 4.8114 26 5.63805 26 6.5V9.75H22.75V6.5H6.5V22.75H22.75V19.5H26V22.75C26 23.612 25.6576 24.4386 25.0481 25.0481C24.4386 25.6576 23.612 26 22.75 26Z" fill="black"/>
<path d="M42.25 14.625C42.2522 13.4764 41.8478 12.3641 41.1084 11.4851C40.3691 10.6061 39.3425 10.0171 38.2105 9.82248C37.0786 9.62785 35.9142 9.84012 34.9237 10.4217C33.9333 11.0033 33.1806 11.9166 32.799 13H14.625V16.25H32.799C33.042 16.9293 33.4327 17.5463 33.943 18.0563C34.4534 18.5664 35.0705 18.9568 35.75 19.1994V37.375H39V19.201C39.9472 18.8661 40.7678 18.2467 41.3496 17.4276C41.9314 16.6085 42.2458 15.6297 42.25 14.625ZM37.375 16.25C37.0536 16.25 36.7394 16.1547 36.4722 15.9761C36.205 15.7976 35.9967 15.5438 35.8737 15.2468C35.7507 14.9499 35.7185 14.6232 35.7812 14.308C35.8439 13.9927 35.9987 13.7032 36.226 13.4759C36.4532 13.2487 36.7428 13.0939 37.058 13.0312C37.3732 12.9685 37.6999 13.0007 37.9969 13.1237C38.2938 13.2467 38.5476 13.455 38.7261 13.7222C38.9047 13.9894 39 14.3036 39 14.625C39 15.056 38.8288 15.4693 38.524 15.774C38.2193 16.0788 37.806 16.25 37.375 16.25Z" fill="black"/>
</g>
</svg>
