<svg width="54" height="54" viewBox="0 0 54 54" fill="none" xmlns="http://www.w3.org/2000/svg">
<path opacity="0.3" d="M47.25 47.25V11.25H6.75V29.25H2.25V11.25C2.25 10.0125 2.691 8.9535 3.573 8.073C4.455 7.1925 5.514 6.7515 6.75 6.75H47.25C48.4875 6.75 49.5473 7.191 50.4293 8.073C51.3113 8.955 51.7515 10.014 51.75 11.25V42.75C51.75 43.9875 51.3098 45.0473 50.4293 45.9293C49.5488 46.8113 48.489 47.2515 47.25 47.25ZM20.25 31.5C17.775 31.5 15.6563 30.6188 13.8938 28.8563C12.1313 27.0938 11.25 24.975 11.25 22.5C11.25 20.025 12.1313 17.9063 13.8938 16.1438C15.6563 14.3813 17.775 13.5 20.25 13.5C22.725 13.5 24.8437 14.3813 26.6062 16.1438C28.3687 17.9063 29.25 20.025 29.25 22.5C29.25 24.975 28.3687 27.0938 26.6062 28.8563C24.8437 30.6188 22.725 31.5 20.25 31.5ZM2.25 49.5V43.2C2.25 41.925 2.5785 40.7535 3.2355 39.6855C3.8925 38.6175 4.764 37.8015 5.85 37.2375C8.175 36.075 10.5375 35.2035 12.9375 34.623C15.3375 34.0425 17.775 33.7515 20.25 33.75C22.725 33.7485 25.1625 34.0395 27.5625 34.623C29.9625 35.2065 32.325 36.078 34.65 37.2375C35.7375 37.8 36.6097 38.616 37.2667 39.6855C37.9237 40.755 38.2515 41.9265 38.25 43.2V49.5H2.25Z" fill="black"/>
</svg>
