<svg width="57" height="56" viewBox="0 0 57 56" fill="none" xmlns="http://www.w3.org/2000/svg">
<g opacity="0.3" clip-path="url(#clip0_9_43)">
<path d="M56.1509 15.9124C55.3977 15.9051 54.6406 16.0581 54.0003 16.4526C50.3999 18.68 50.3701 21.7639 50.3498 23.8703L50.3387 25.015L40.036 24.9154M21.6537 31.6068L55.996 31.9388M38.8249 31.7728L38.5925 55.8124M28.3009 54.5681C26.0114 54.5459 24.3275 51.0951 24.3275 51.0951C22.6435 47.6443 22.6657 45.3548 22.6989 41.9206L22.7321 38.4863L4.41619 38.3093L4.42172 37.7369L8.988 20.6197C9.38091 19.1464 10.2529 17.8458 11.4665 16.9227C12.6801 15.9996 14.1664 15.5065 15.6912 15.5213L18.3744 15.5472L21.6233 22.205C21.9963 22.9699 22.575 23.6156 23.2946 24.0699C24.0141 24.5242 24.846 24.769 25.697 24.7768L35.457 24.8711M18.0753 10.9649C18.0753 10.9649 14.4342 8.64002 14.4619 5.77817C14.467 5.25261 14.5755 4.73321 14.7813 4.2496C14.9871 3.766 15.2862 3.32767 15.6614 2.95964C16.0366 2.59161 16.4807 2.30109 16.9681 2.10466C17.4556 1.90824 17.977 1.80975 18.5026 1.81483C19.0282 1.81991 19.5476 1.92846 20.0312 2.13427C20.5148 2.34009 20.9531 2.63914 21.3211 3.01435C21.6892 3.38957 21.9797 3.8336 22.1761 4.32109C22.3725 4.80858 22.471 5.32999 22.4659 5.85554C22.4383 8.7174 18.7621 10.9716 18.7621 10.9716L18.0753 10.9649Z" stroke="black" stroke-width="2.66667"/>
</g>
<defs>
<clipPath id="clip0_9_43">
<rect width="54.9502" height="54.9502" fill="white" transform="translate(1.34717 0.499557) rotate(0.553857)"/>
</clipPath>
</defs>
</svg>
