<svg width="49" height="48" viewBox="0 0 49 48" fill="none" xmlns="http://www.w3.org/2000/svg">
<g opacity="0.3" clip-path="url(#clip0_9_43)">
<path d="M48.1828 13.4247C47.5339 13.4184 46.8817 13.5502 46.3301 13.8901C43.2285 15.8089 43.2028 18.4657 43.1853 20.2802L43.1757 21.2664L34.3002 21.1806M18.4644 26.945L48.0494 27.231M33.2569 27.088L33.0567 47.7975M24.1907 46.7256C22.2184 46.7065 20.7677 43.7337 20.7677 43.7337C19.3171 40.7609 19.3361 38.7886 19.3647 35.8301L19.3933 32.8716L3.61465 32.719L3.61942 32.226L7.55315 17.48C7.89164 16.2108 8.64282 15.0902 9.68833 14.295C10.7338 13.4998 12.0142 13.0751 13.3277 13.0878L15.6393 13.1101L18.4381 18.8456C18.7594 19.5045 19.258 20.0609 19.8779 20.4522C20.4978 20.8435 21.2144 21.0544 21.9475 21.0612L30.3556 21.1424M15.3816 9.16258C15.3816 9.16258 12.2449 7.15974 12.2688 4.69432C12.2731 4.24157 12.3667 3.79411 12.544 3.3775C12.7213 2.96089 12.9789 2.58328 13.3021 2.26623C13.6254 1.94919 14.0079 1.69891 14.4278 1.52969C14.8478 1.36047 15.297 1.27563 15.7497 1.28001C16.2025 1.28439 16.6499 1.3779 17.0665 1.5552C17.4832 1.7325 17.8608 1.99013 18.1778 2.31337C18.4949 2.6366 18.7451 3.01912 18.9144 3.43909C19.0836 3.85905 19.1684 4.30823 19.164 4.76098C19.1402 7.22639 15.9733 9.1683 15.9733 9.1683L15.3816 9.16258Z" stroke="black" stroke-width="2.66667"/>
</g>
<defs>
<clipPath id="clip0_9_43">
<rect width="47.3382" height="47.3382" fill="white" transform="translate(0.970703 0.146942) rotate(0.553857)"/>
</clipPath>
</defs>
</svg>
