<svg width="34" height="34" viewBox="0 0 34 34" fill="none" xmlns="http://www.w3.org/2000/svg">
<g opacity="0.7" clip-path="url(#clip0_9_17)">
<path d="M31.875 3.18003L23.3676 3.18006V1.0625C23.3676 0.475469 22.8921 0 22.3051 0C21.718 0 21.2426 0.475469 21.2426 1.0625V3.17953H12.7426V1.0625C12.7426 0.475469 12.2671 0 11.6801 0C11.093 0 10.6176 0.475469 10.6176 1.0625V3.17953H2.125C0.951469 3.17953 0 4.131 0 5.30453V31.867C0 33.0405 0.951469 33.992 2.125 33.992H31.875C33.0485 33.992 34 33.0405 34 31.867V5.30453C34 4.1315 33.0485 3.18003 31.875 3.18003ZM31.875 31.867H2.125V5.30453H10.6176V6.375C10.6176 6.962 11.093 7.4375 11.6801 7.4375C12.2671 7.4375 12.7426 6.962 12.7426 6.375V5.30506H21.2426V6.37553C21.2426 6.96256 21.718 7.43803 22.3051 7.43803C22.8921 7.43803 23.3676 6.96256 23.3676 6.37553V5.30506H31.875V31.867ZM24.4375 16.9925H26.5625C27.149 16.9925 27.625 16.5165 27.625 15.93V13.805C27.625 13.2185 27.149 12.7425 26.5625 12.7425H24.4375C23.851 12.7425 23.375 13.2185 23.375 13.805V15.93C23.375 16.5165 23.851 16.9925 24.4375 16.9925ZM24.4375 25.492H26.5625C27.149 25.492 27.625 25.0165 27.625 24.4295V22.3045C27.625 21.718 27.149 21.242 26.5625 21.242H24.4375C23.851 21.242 23.375 21.718 23.375 22.3045V24.4295C23.375 25.0171 23.851 25.492 24.4375 25.492ZM18.0625 21.242H15.9375C15.351 21.242 14.875 21.718 14.875 22.3045V24.4295C14.875 25.0165 15.351 25.492 15.9375 25.492H18.0625C18.649 25.492 19.125 25.0165 19.125 24.4295V22.3045C19.125 21.7185 18.649 21.242 18.0625 21.242ZM18.0625 12.7425H15.9375C15.351 12.7425 14.875 13.2185 14.875 13.805V15.93C14.875 16.5165 15.351 16.9925 15.9375 16.9925H18.0625C18.649 16.9925 19.125 16.5165 19.125 15.93V13.805C19.125 13.218 18.649 12.7425 18.0625 12.7425ZM9.5625 12.7425H7.4375C6.851 12.7425 6.375 13.2185 6.375 13.805V15.93C6.375 16.5165 6.851 16.9925 7.4375 16.9925H9.5625C10.149 16.9925 10.625 16.5165 10.625 15.93V13.805C10.625 13.218 10.149 12.7425 9.5625 12.7425ZM9.5625 21.242H7.4375C6.851 21.242 6.375 21.718 6.375 22.3045V24.4295C6.375 25.0165 6.851 25.492 7.4375 25.492H9.5625C10.149 25.492 10.625 25.0165 10.625 24.4295V22.3045C10.625 21.7185 10.149 21.242 9.5625 21.242Z" fill="black"/>
</g>
<defs>
<clipPath id="clip0_9_17">
<rect width="34" height="34" fill="white"/>
</clipPath>
</defs>
</svg>
