<svg width="54" height="54" viewBox="0 0 54 54" fill="none" xmlns="http://www.w3.org/2000/svg">
<g opacity="0.3">
<path d="M47.25 50.625V13.5H37.125V3.375H6.75V50.625H0V54H23.625V43.875H30.375V54H54V50.625H47.25ZM20.25 37.125H13.5V30.375H20.25V37.125ZM20.25 27H13.5V20.25H20.25V27ZM20.25 16.875H13.5V10.125H20.25V16.875ZM30.375 37.125H23.625V30.375H30.375V37.125ZM30.375 27H23.625V20.25H30.375V27ZM30.375 16.875H23.625V10.125H30.375V16.875ZM43.875 37.125H37.125V30.375H43.875V37.125ZM43.875 27H37.125V20.25H43.875V27Z" fill="black"/>
</g>
</svg>
