<svg width="50" height="50" viewBox="0 0 50 50" fill="none" xmlns="http://www.w3.org/2000/svg">
<g opacity="0.7">
<path d="M40.625 25C40.625 24.5209 40.6042 24.0625 40.5625 23.5834L44.4375 20.6459C45.2709 20.0209 45.5 18.8542 44.9792 17.9375L41.0834 11.2084C40.8336 10.7671 40.4295 10.4337 39.9488 10.2721C39.4682 10.1106 38.9448 10.1324 38.4792 10.3334L34 12.2292C33.2292 11.6875 32.4167 11.2084 31.5625 10.8125L30.9584 6.00002C30.8334 4.95835 29.9375 4.16669 28.8959 4.16669H21.125C20.0625 4.16669 19.1667 4.95835 19.0417 6.00002L18.4375 10.8125C17.5834 11.2084 16.7709 11.6875 16 12.2292L11.5209 10.3334C10.5625 9.91669 9.43753 10.2917 8.9167 11.2084L5.02087 17.9584C4.50003 18.875 4.7292 20.0209 5.56253 20.6667L9.43753 23.6042C9.35066 24.5397 9.35066 25.4812 9.43753 26.4167L5.56253 29.3542C4.7292 29.9792 4.50003 31.1459 5.02087 32.0625L8.9167 38.7917C9.43753 39.7084 10.5625 40.0834 11.5209 39.6667L16 37.7709C16.7709 38.3125 17.5834 38.7917 18.4375 39.1875L19.0417 44C19.1667 45.0417 20.0625 45.8334 21.1042 45.8334H28.875C29.9167 45.8334 30.8125 45.0417 30.9375 44L31.5417 39.1875C32.3959 38.7917 33.2084 38.3125 33.9792 37.7709L38.4584 39.6667C39.4167 40.0834 40.5417 39.7084 41.0625 38.7917L44.9584 32.0625C45.4792 31.1459 45.25 30 44.4167 29.3542L40.5417 26.4167C40.6042 25.9375 40.625 25.4792 40.625 25ZM25.0834 32.2917C21.0625 32.2917 17.7917 29.0209 17.7917 25C17.7917 20.9792 21.0625 17.7084 25.0834 17.7084C29.1042 17.7084 32.375 20.9792 32.375 25C32.375 29.0209 29.1042 32.2917 25.0834 32.2917Z" fill="black"/>
</g>
</svg>
