<svg width="64" height="64" viewBox="0 0 64 64" fill="none" xmlns="http://www.w3.org/2000/svg">
<g opacity="0.3">
<path d="M52.9221 31.594C52.6797 28.5944 51.8801 25.6663 50.5641 22.96L58.0001 20.26C57.4136 19.0456 56.7258 17.8828 55.9441 16.784L52.4581 18.054C49.4129 13.7846 45.052 10.6313 40.0434 9.07722C35.0348 7.52317 29.6549 7.6541 24.7278 9.44994C19.8008 11.2458 15.5984 14.6075 12.7645 19.02C9.93069 23.4325 8.62168 28.6524 9.03807 33.88L12.5321 32.596C12.6412 33.9355 12.8626 35.2635 13.1941 36.566L5.76807 39.276C6.50539 42.1917 7.7754 44.946 9.51407 47.4L13.4461 45.968L13.4501 45.976C15.8375 49.3341 19.0558 52.0148 22.7901 53.756C28.5594 56.4376 35.1567 56.7215 41.1351 54.5454C47.1134 52.3693 51.9846 47.9108 54.6801 42.148C56.4271 38.4082 57.1715 34.2784 56.8401 30.164L52.9221 31.594ZM47.0821 38.586C45.3342 42.3301 42.1724 45.2278 38.2905 46.6432C34.4086 48.0587 30.1236 47.8763 26.3761 46.136C24.6785 45.3457 23.1394 44.2525 21.8341 42.91L17.8641 44.358C15.7318 42.1601 14.2898 39.386 13.7161 36.378L21.1661 33.664C20.9009 32.3037 20.8182 30.9141 20.9201 29.532L17.4161 30.806C17.6017 28.2921 18.3958 25.861 19.73 23.7222C21.0643 21.5835 22.8986 19.8013 25.0748 18.5293C27.2511 17.2572 29.7041 16.5334 32.2223 16.4203C34.7405 16.3072 37.2485 16.8082 39.5301 17.88H39.5421C41.2356 18.6727 42.7707 19.7672 44.0721 21.11L47.5601 19.842C48.5224 20.8323 49.3489 21.9461 50.0181 23.154L42.5981 25.874C44.0932 28.5454 44.7725 31.5966 44.5521 34.65L48.4881 33.218C48.3485 35.0784 47.8721 36.8979 47.0821 38.588V38.586Z" fill="black"/>
</g>
</svg>
