<svg width="31" height="31" viewBox="0 0 31 31" fill="none" xmlns="http://www.w3.org/2000/svg">
<path d="M15.0312 0C6.74325 0 0 6.74325 0 15.0312C0 23.3193 6.74325 30.0625 15.0312 30.0625C23.3193 30.0625 30.0625 23.3193 30.0625 15.0312C30.0625 6.74325 23.3193 0 15.0312 0ZM15.0312 2.3125C22.0693 2.3125 27.75 7.99316 27.75 15.0312C27.75 22.0693 22.0693 27.75 15.0312 27.75C7.99316 27.75 2.3125 22.0693 2.3125 15.0312C2.3125 7.99316 7.99316 2.3125 15.0312 2.3125ZM13.875 8.09375V13.875H8.09375V16.1875H13.875V21.9688H16.1875V16.1875H21.9688V13.875H16.1875V8.09375H13.875Z" fill="white"/>
</svg>
